<?xml version="1.0" encoding="UTF-8"?>
<svg width="276px" height="62px" viewBox="0 0 276 62" version="1.1" xmlns="http://www.w3.org/2000/svg" xmlns:xlink="http://www.w3.org/1999/xlink">
    <!-- Generator: Sketch 60.1 (88133) - https://sketch.com -->
    <title>It's a match</title>
    <desc>Created with Sketch.</desc>
    <defs>
        <polygon id="path-1" points="0.000380645161 54 58.9090258 54 58.9090258 0.178009412 0.000380645161 0.178009412"></polygon>
        <polygon id="path-3" points="0.262814793 0.212229167 106.820253 0.212229167 106.820253 60.9398896 0.262814793 60.9398896"></polygon>
        <polygon id="path-5" points="0.367340426 54 59.6374468 54 59.6374468 0.178009412 0.367340426 0.178009412"></polygon>
        <polygon id="path-7" points="0.454934118 0.212229167 107.375569 0.212229167 107.375569 60.9398896 0.454934118 60.9398896 0.454934118 0.212229167"></polygon>
    </defs>
    <g id="MIGO-Dating_iPhoneX" stroke="none" stroke-width="1" fill="none" fill-rule="evenodd">
        <g id="Discover-/-Popup-/-Matched" transform="translate(-50.000000, -320.000000)">
            <g id="Popup_purchase" transform="translate(36.000000, 146.000000)">
                <g id="It's-a-match" transform="translate(14.000000, 174.000000)">
                    <g id="Group-3" transform="translate(0.000000, 8.000000)">
                        <mask id="mask-2" fill="white">
                            <use xlink:href="#path-1"></use>
                        </mask>
                        <g id="Clip-2"></g>
                        <path d="M43.7511011,54.0001271 C43.7511011,54.0001271 13.4352516,39.5058918 0.000380645161,28.1214212 L20.3255634,22.9463153 L14.4687032,0.178009412 C14.4687032,0.178009412 37.8948753,12.4220329 58.9090258,18.3741035 L39.9617785,39.8495859 L43.7511011,54.0001271 Z" id="Fill-1" fill="#F89B20" mask="url(#mask-2)"></path>
                    </g>
                    <polygon id="Fill-4" fill="#F47723" points="31 38.4345554 43.1500622 61 58 26"></polygon>
                    <g id="Group-8" transform="translate(31.000000, 0.000000)">
                        <mask id="mask-4" fill="white">
                            <use xlink:href="#path-3"></use>
                        </mask>
                        <g id="Clip-7"></g>
                        <path d="M106.820253,19.8792646 L106.820253,60.9398896 C33.2681994,60.9398896 0.262814793,38.6621812 0.262814793,38.6621812 L18.1406787,0.211847917 C18.1406787,0.211847917 48.0519272,19.8792646 106.820253,19.8792646" id="Fill-6" fill="#FFCA0E" mask="url(#mask-4)"></path>
                    </g>
                    <g id="Group-11" transform="translate(216.000000, 8.000000)">
                        <mask id="mask-6" fill="white">
                            <use xlink:href="#path-5"></use>
                        </mask>
                        <g id="Clip-10"></g>
                        <path d="M15.6181915,54.0001271 C15.6181915,54.0001271 46.1198936,39.5058918 59.637766,28.1214212 L39.1879787,22.9463153 L45.0801064,0.178009412 C45.0801064,0.178009412 21.5103191,12.4220329 0.367340426,18.3741035 L19.4307447,39.8495859 L15.6181915,54.0001271 Z" id="Fill-9" fill="#F89B20" mask="url(#mask-6)"></path>
                    </g>
                    <polygon id="Fill-12" fill="#F47723" points="244 38.4345554 231.849658 61 217 26"></polygon>
                    <g id="Group-16" transform="translate(137.000000, 0.000000)">
                        <mask id="mask-8" fill="white">
                            <use xlink:href="#path-7"></use>
                        </mask>
                        <g id="Clip-15"></g>
                        <path d="M0.454934118,19.8792646 L0.454934118,60.9398896 C74.2576871,60.9398896 107.375569,38.6621812 107.375569,38.6621812 L89.4367694,0.211847917 C89.4367694,0.211847917 59.4235694,19.8792646 0.454934118,19.8792646" id="Fill-14" fill="#FFCA0E" mask="url(#mask-8)"></path>
                    </g>
                    <path d="M73.5970821,40.0930746 C73.0422815,39.9396105 72.2638684,40.1920433 74.4879058,31.5686133 C77.4166245,20.2085111 78.4639769,20.9420069 78.8410962,21.046613 L81.2373756,21.7099538 C81.5256544,21.790131 82.0979814,21.8746928 81.9855708,22.3112825 C81.9263437,22.5411655 79.7603247,26.0564331 78.6156707,30.4943645 C77.0975235,36.3811223 77.2286692,40.4833119 77.1458721,40.8052733 C77.0860407,41.0351563 76.9470384,41.0207494 76.7476002,40.966254 L76.3040015,40.8428563 L73.5970821,40.0930746 Z" id="Fill-17" fill="#FFFFFF"></path>
                    <path d="M88.3394446,25.592239 C88.2029249,26.2198157 87.2323833,27.4781071 87.1715754,27.7567511 C87.0803635,28.1747172 87.1298445,28.4809746 87.4613071,28.5600493 C87.748058,28.6297103 88.0383859,28.5776215 88.325733,28.6466549 C89.1645242,28.8487346 89.0500623,29.4813319 88.8777733,30.2720786 C88.8074269,30.5971633 88.6148686,31.4801638 88.1516555,31.3684551 C87.9745972,31.3264075 87.5787498,31.0107364 87.1811139,30.9140896 C85.9673406,30.6216388 85.643628,32.1089956 85.1929342,34.1774885 C83.8480067,40.3597467 84.8614716,41.6807957 84.7756252,42.0755415 C84.6999134,42.4238466 81.855654,43.1079052 81.3477293,42.9855277 C80.5089381,42.783448 81.415691,37.5475755 81.6940958,36.2692017 C82.3158863,33.4105898 82.6914645,32.3261372 82.7874456,31.8849508 C82.9394653,31.187713 83.4062553,30.0041033 82.4124636,29.764369 C82.0154238,29.6683498 81.7334421,29.8936498 81.4908067,29.8359128 C81.2040557,29.7662518 81.2916906,29.4700356 81.3829025,29.0514419 C81.767423,27.2848134 82.2985978,27.1931872 83.137389,27.3952669 C83.2256201,27.4166045 83.3597551,27.5465129 83.5362173,27.5898157 C84.2206041,27.7542408 84.5347782,26.6315061 84.8227215,25.8445249 C85.1249725,24.9878826 87.7391157,24.933911 88.1808672,25.0399715 C88.3352715,25.0776261 88.4354257,25.1510526 88.3394446,25.592239" id="Fill-19" fill="#FFFFFF"></path>
                    <path d="M94.9835378,25.2795368 C95.2965873,25.1452869 95.6491025,24.9475734 96.0230229,25.0128677 C97.4217123,25.2575687 98.2029984,26.8343951 97.9541641,28.0188457 C97.4036517,30.6379398 94.1280027,31.1981282 92.6798141,30.944884 C92.6048962,30.9320692 92.4898438,30.864334 92.5038909,30.7965988 C92.5232893,30.705675 93.3206292,30.1131446 93.5172885,29.1794974 C93.919303,27.2658256 91.9527096,27.016853 92.0008711,26.7886281 C92.0242829,26.6745157 92.5058976,26.4755817 92.5908491,26.4432397 L94.9835378,25.2795368 Z" id="Fill-21" fill="#FFFFFF"></path>
                    <path d="M96.054794,41.8923098 C96.2340564,40.7754634 97.054855,39.4391687 97.2525033,39.4688923 C97.3752948,39.4865999 97.4153497,43.1653628 100.917205,43.6871059 C101.927772,43.8376209 103.191802,43.5150888 103.386823,42.3040125 C103.779494,39.8584604 97.0187399,39.5068372 97.778471,34.7807937 C98.244028,31.8836968 100.912608,30.6764149 103.575935,31.0735721 C106.658198,31.5333384 108.073255,33.5678201 107.997085,34.0427644 C107.924198,34.4943093 106.23401,36.2119507 105.66733,36.127207 C105.025794,36.0317122 105.172225,34.1812635 102.903537,33.8422886 C102.13921,33.7290862 101.049846,33.906795 100.935591,34.6195277 C100.542264,37.0650797 107.750189,38.0914906 106.974698,42.9123965 C106.478936,45.9998506 103.533254,47.3601771 100.574439,46.9187508 C97.96036,46.5291827 95.6082796,44.6711449 96.054794,41.8923098" id="Fill-23" fill="#FFFFFF"></path>
                    <path d="M122.545739,43.1484688 C122.608851,42.3080466 122.833031,41.3091736 121.637188,41.2261455 C120.167202,41.1241033 118.532862,42.2174128 118.423074,43.6833983 C118.322489,45.0283274 119.484146,45.906144 120.804898,45.9980454 C122.274883,46.1000877 122.378755,45.3826231 122.466849,44.2056516 L122.545739,43.1484688 Z M121.315054,38.8373434 C122.046759,38.7676251 122.628574,38.6871322 122.687742,37.8942451 C122.779123,36.6691046 121.50702,35.9288232 120.411104,35.8521331 C117.869528,35.6759359 118.088448,37.7681184 117.540819,37.7294564 C116.743372,37.6743156 115.941322,36.6767103 116.01824,35.643612 C116.151038,33.8657956 118.305396,32.8567819 120.597811,33.0165001 C121.395259,33.071641 124.810543,33.2845986 125.830198,36.7362877 C126.24963,38.1661464 125.767743,45.2799471 125.705288,46.1203693 C125.626398,47.1775521 125.778262,47.8164252 125.717779,48.6327629 C125.679649,49.1372698 123.333983,49.0231853 121.116513,48.8685375 C115.111004,48.4514954 114.909834,45.4434681 115.017651,44.002201 C115.24446,40.9751597 118.49013,39.0997377 121.315054,38.8373434 L121.315054,38.8373434 Z" id="Fill-25" fill="#FFFFFF"></path>
                    <path d="M136.634566,48.9645985 C135.830269,48.9870499 135.353672,49.7585029 135.159918,42.7480713 C134.883304,32.7765572 134.584886,33.0927469 137.802697,33.0035652 C138.299854,32.9898449 138.820684,32.998576 138.830653,33.3540556 C138.838752,33.6384392 138.567122,34.0961972 138.575844,34.4273545 C138.582697,34.6643409 138.824422,34.8239948 139.061164,34.8171347 C139.34463,34.8096509 139.667969,34.5159125 140.180701,34.2415072 C140.694055,33.942156 141.396803,33.6621379 142.38987,33.6346974 C143.549902,33.6022676 144.336755,34.671201 144.928608,34.6549861 C145.260046,34.6456314 145.731036,34.5608152 146.312921,34.1897444 C146.895429,33.8417486 147.619359,33.4900109 148.471004,33.4656886 C152.824551,33.3453245 152.888097,39.0554492 152.972203,42.0876277 C153.172187,49.3119707 152.250765,48.5317865 151.564838,48.550496 L149.955621,48.594775 C149.71888,48.6016351 149.057873,48.6671182 149.046036,48.2411664 C149.034199,47.8145909 149.860925,45.184042 149.751899,41.2288638 C149.626675,36.7049184 148.004375,36.2758483 147.105381,36.3007942 C146.27741,36.3232456 145.494295,36.2739774 145.602698,40.1823818 C145.83757,48.6858277 145.720445,48.7126446 144.962873,48.7338486 L142.833448,48.7930952 C142.384263,48.8049445 142.007969,48.9103411 141.998624,48.5791838 C141.989279,48.2237042 142.756196,43.4378264 142.694519,41.187703 C142.654646,39.7664084 142.562442,36.4267712 140.621787,36.480405 C138.847474,36.5302968 138.245652,38.7274101 138.342841,42.2566364 C138.474918,47.0175682 139.162713,47.8994071 139.18078,48.5617216 C139.191371,48.9652222 138.763991,48.9053519 138.503576,48.9128357 L136.634566,48.9645985 Z" id="Fill-27" fill="#FFFFFF"></path>
                    <path d="M163.203779,41.9260042 C163.123297,41.0691699 163.165977,40.0251664 162.058748,40.1423901 C160.699099,40.2861673 159.383959,41.6611174 159.523583,43.1545865 C159.651621,44.5262985 160.856404,45.214745 162.078258,45.0865113 C163.439126,44.9427341 163.416567,44.2037713 163.304381,43.0030376 L163.203779,41.9260042 Z M161.373436,37.7907914 C162.030701,37.5977933 162.549562,37.4196909 162.473959,36.6120777 C162.356895,35.3627707 161.074069,34.8304066 160.059516,34.937268 C157.707873,35.185316 158.250513,37.2551891 157.743236,37.308296 C157.005489,37.3860134 156.109219,36.5162263 156.011056,35.4631556 C155.841557,33.6510452 157.645073,32.2741521 159.766246,32.050067 C160.503993,31.9723496 163.65984,31.6148496 165.156063,34.9197816 C165.773088,36.2889029 166.496201,43.5321635 166.576682,44.3896454 C166.677284,45.4666789 166.921777,46.0838844 166.99921,46.9167558 C167.047377,47.4309859 164.884743,47.7088255 162.833077,47.9251389 C157.276809,48.5106099 156.601253,45.5152522 156.463459,44.0457459 C156.175677,40.9610132 158.835222,38.528459 161.373436,37.7907914 L161.373436,37.7907914 Z" id="Fill-29" fill="#FFFFFF"></path>
                    <path d="M172.561406,28.4758716 C172.652909,29.1344643 172.16324,30.7300106 172.204664,31.0226464 C172.265873,31.4619245 172.422913,31.7363922 172.771617,31.6825369 C173.073951,31.6364678 173.335479,31.4716574 173.637812,31.4249395 C174.521319,31.2893278 174.636317,31.9446762 174.752552,32.7739191 C174.800159,33.1152194 174.929377,34.0424401 174.440944,34.117059 C174.254845,34.1462577 173.759611,33.9983176 173.341661,34.0619059 C172.062462,34.2591593 172.280711,35.820316 172.583663,37.991401 C173.490046,44.4806483 174.941742,45.3540136 174.999241,45.768635 C175.049939,46.134592 172.544712,47.9157122 172.009909,47.9974686 C171.127021,48.1337291 170.134699,42.7293756 169.947363,41.3868846 C169.528795,38.3865567 169.504682,37.1946012 169.439764,36.7306664 C169.337749,35.9987525 169.36619,34.6737807 168.320697,34.8346979 C167.902128,34.8982862 167.709846,35.2272581 167.454501,35.2668386 C167.152168,35.3129076 167.131146,34.9923709 167.069938,34.5530928 C166.810883,32.6993002 167.291896,32.4008247 168.175403,32.265213 C168.268762,32.2502892 168.444969,32.3236104 168.631068,32.2950605 C169.351351,32.1841055 169.253665,30.9778751 169.251192,30.1064563 C169.23759,29.1617164 171.745908,28.0781205 172.210847,28.006097 C172.373452,27.9814404 172.497106,28.0119368 172.561406,28.4758716" id="Fill-31" fill="#FFFFFF"></path>
                    <path d="M177.223225,38.9059571 C176.444749,34.9056103 177.606165,29.9807639 182.235455,29.0980319 C184.27927,28.708408 185.972897,29.5188258 186.2305,30.8441705 C186.366544,31.5417532 186.112091,32.9899074 185.242288,33.155108 C184.70189,33.2585921 184.461293,31.5193109 182.55793,31.8821287 C180.137473,32.3440668 179.884279,35.6723902 180.26407,37.6261204 C180.703065,39.8821988 182.150427,41.560387 184.382563,41.134606 C186.92017,40.6508489 187.059993,38.2364274 187.271618,38.1959065 C187.389397,38.1734641 187.705574,38.5475031 187.890746,39.5006791 C188.434294,42.2922566 186.913241,44.3669261 184.140077,44.8949444 C180.239507,45.639282 177.883922,42.3009842 177.223225,38.9059571" id="Fill-33" fill="#FFFFFF"></path>
                    <path d="M190.017865,22.0080453 C190.23232,21.9549902 190.464215,22.1729635 190.523642,22.4081956 C190.606969,22.7386712 190.285287,25.271252 190.761997,27.1569443 C190.833697,27.4394786 190.946092,27.886931 191.351101,27.7872131 C191.541655,27.7399109 191.86915,27.4330864 192.316146,26.9977791 C192.792209,26.5790915 193.387127,26.1316391 194.173245,25.9366776 C196.339752,25.4016524 198.322165,26.5381816 199.75746,32.2176313 C200.329124,34.479823 201.501518,40.524266 200.7632,40.7064431 L198.286638,41.3194529 C198.072829,41.372508 197.447552,41.6019872 197.351952,41.2248487 C197.310611,41.0599305 197.322884,36.0996007 196.530307,32.9655161 C195.607894,29.3130258 194.804335,28.735173 193.637754,29.0247386 C191.208346,29.6249641 192.089418,33.3132505 192.511868,34.9860834 C193.702995,39.6990359 194.613781,41.1008405 194.786249,41.7841642 C194.881203,42.1613027 194.42904,42.273805 194.191331,42.3326131 L191.833623,42.9155797 C191.143106,43.08689 191.345287,43.8878299 188.70207,33.4244744 C188.226007,31.5394213 186.112467,22.9739034 187.421802,22.6498199 L190.017865,22.0080453 Z" id="Fill-35" fill="#FFFFFF"></path>
                    <path d="M223,26 C223,28.7610238 220.761516,31 217.999683,31 C215.238484,31 213,28.7610238 213,26 C213,23.2389762 215.238484,21 217.999683,21 C220.761516,21 223,23.2389762 223,26" id="Fill-37" fill="#FFFFFF"></path>
                    <path d="M60,26 C60,28.7610238 57.7615156,31 54.9996832,31 C52.2384844,31 50,28.7610238 50,26 C50,23.2389762 52.2384844,21 54.9996832,21 C57.7615156,21 60,23.2389762 60,26" id="Fill-39" fill="#FFFFFF"></path>
                </g>
            </g>
        </g>
    </g>
</svg>