<svg width="303" height="214" xmlns="http://www.w3.org/2000/svg" xmlns:xlink="http://www.w3.org/1999/xlink"><defs><path id="a" d="M.021 225.424h60.768V.217H.02z"/><path id="c" d="M.369 225.424H140.51V.217H.369v225.207z"/><path id="e" d="M.46 225.424h168.152V.217H.46v225.207z"/><path id="g" d="M.568 225.424h164.046V.217H.568z"/><path id="i" d="M.124 179.421h159.488V.024H.124v179.397z"/><path id="k" d="M.368 128.424h154.245V.546H.368z"/><path id="m" d="M.548 64.426h138.067V.536H.548v63.89z"/><path id="o" d="M.673 225.424h143.82V.217H.672z"/><path id="q" d="M163.404 225.424H.435V.217h162.97v225.207z"/><path id="s" d="M159.98 225.424H.435V.217H159.98z"/><path id="u" d="M154.736 179.421H.435V.024h154.301z"/><path id="w" d="M150.491 128.424H.437V.546h150.054v127.878z"/><path id="y" d="M134.998 64.426H.437V.536h134.561z"/></defs><g fill="none" fill-rule="evenodd" opacity=".1"><g transform="translate(116 -2)"><mask id="b" fill="#fff"><use xlink:href="#a"/></mask><path fill="#FFF" mask="url(#b)" d="M60.789-245.856L34.11 228.748h-1.77L.02-245.856z"/></g><g transform="translate(151 -2)"><mask id="d" fill="#fff"><use xlink:href="#c"/></mask><path fill="#FFF" mask="url(#d)" d="M140.511-245.856L2.125 228.748H.369l79.846-474.604z"/></g><g transform="translate(154 -2)"><mask id="f" fill="#fff"><use xlink:href="#e"/></mask><path fill="#FFF" mask="url(#f)" d="M195.398-127.034L2.248 228.748H.459l194.94-467.21z"/></g><g transform="translate(158 -2)"><mask id="h" fill="#fff"><use xlink:href="#g"/></mask><path fill="#FFF" mask="url(#h)" d="M3.097 228.748H.567L191.312-58.057V5.397z"/></g><g transform="translate(163 44)"><mask id="j" fill="#fff"><use xlink:href="#i"/></mask><path fill="#FFF" mask="url(#j)" d="M2.662 182.759H.124L186.393.024v29.218z"/></g><g transform="translate(168 95)"><mask id="l" fill="#fff"><use xlink:href="#k"/></mask><path fill="#FFF" mask="url(#l)" d="M6.027 131.745H.367L181.365.545V33.1z"/></g><g transform="translate(184 159)"><mask id="n" fill="#fff"><use xlink:href="#m"/></mask><path fill="#FFF" mask="url(#n)" d="M13.719 67.737H.548L165.204.535v22.37z"/></g><g transform="translate(2 -2)"><mask id="p" fill="#fff"><use xlink:href="#o"/></mask><path fill="#FFF" mask="url(#p)" d="M.673-245.856l142.065 474.604h1.754L60.916-245.856z"/></g><g transform="translate(-20 -2)"><mask id="r" fill="#fff"><use xlink:href="#q"/></mask><path fill="#FFF" mask="url(#r)" d="M-34.31-127.034l195.934 355.782h1.78L-34.31-238.462z"/></g><g transform="translate(-20 -2)"><mask id="t" fill="#fff"><use xlink:href="#s"/></mask><path fill="#FFF" mask="url(#t)" d="M157.453 228.748h2.527L-34.335-58.057V5.397z"/></g><g transform="translate(-20 44)"><mask id="v" fill="#fff"><use xlink:href="#u"/></mask><path fill="#FFF" mask="url(#v)" d="M152.214 182.759h2.522L-34.292.024v29.218z"/></g><g transform="translate(-20 95)"><mask id="x" fill="#fff"><use xlink:href="#w"/></mask><path fill="#FFF" mask="url(#x)" d="M144.827 131.745h5.664L-34.475.545V33.1z"/></g><g transform="translate(-20 159)"><mask id="z" fill="#fff"><use xlink:href="#y"/></mask><path fill="#FFF" mask="url(#z)" d="M121.749 67.737h13.25L-34.44.535v22.37z"/></g></g></svg>